<svg width="16" height="16" viewBox="0 0 16 16" fill="none" xmlns="http://www.w3.org/2000/svg">
<g clip-path="url(#clip0_6383_237)">
<path d="M8 0.5C10.1694 0.5 10.432 0.509745 11.2764 0.549805H11.2783C12.0789 0.585155 12.6062 0.713082 13.0605 0.888672C13.5244 1.06818 13.9112 1.30578 14.3027 1.69727L14.3037 1.69824C14.696 2.08779 14.9295 2.47197 15.1025 2.93848V2.93945L15.1055 2.94727C15.2805 3.39742 15.409 3.92735 15.4443 4.72852C15.4813 5.5705 15.4902 5.8341 15.4902 8.00293C15.4902 10.1722 15.4814 10.4361 15.4443 11.2783C15.409 12.0789 15.2811 12.6062 15.1055 13.0605C14.926 13.5243 14.6883 13.9113 14.2969 14.3027C13.9053 14.6944 13.5177 14.9318 13.0537 15.1113L13.0527 15.1123C12.6026 15.2873 12.0725 15.4149 11.2715 15.4502C10.4295 15.4872 10.1659 15.4971 7.99707 15.4971C5.8278 15.4971 5.56394 15.4872 4.72168 15.4502C3.92114 15.4148 3.39376 15.2869 2.93945 15.1113C2.47565 14.9318 2.08875 14.6942 1.69727 14.3027L1.69629 14.3018L1.55566 14.1553C1.28963 13.8627 1.10459 13.566 0.956055 13.2285L0.884766 13.0557C0.731633 12.6618 0.613996 12.2069 0.563477 11.5625L0.546875 11.2744C0.50987 10.4325 0.5 10.1689 0.5 8C0.5 5.83075 0.509848 5.56713 0.546875 4.72168C0.582152 3.92282 0.708765 3.39604 0.883789 2.94238C1.06735 2.47513 1.30355 2.08824 1.69629 1.69824L1.69824 1.69629C2.08807 1.30371 2.47455 1.06825 2.94434 0.884766L2.94336 0.883789C3.39356 0.708713 3.92429 0.582226 4.72559 0.546875L4.72461 0.545898C5.56687 0.508876 5.83073 0.5 8 0.5ZM8 0.94043C6.39515 0.94043 5.84655 0.946188 5.31348 0.964844L4.74609 0.988281C4.12064 1.01596 3.69504 1.10299 3.38184 1.19922L3.10449 1.2959C2.66852 1.46442 2.34291 1.67467 2.01172 2.00586C1.68436 2.33327 1.47132 2.66095 1.30273 3.09668C1.19024 3.38595 1.06652 3.78653 1.0127 4.44336L0.994141 4.74023C0.956153 5.5918 0.947266 5.85389 0.947266 7.99414C0.947266 9.59659 0.952045 10.1445 0.970703 10.6787L0.994141 11.2471C1.02177 11.8724 1.10889 12.2981 1.20508 12.6113L1.30273 12.8906C1.47115 13.326 1.68094 13.6506 2.01172 13.9814C2.33927 14.309 2.66754 14.5218 3.10352 14.6904V14.6914C3.43403 14.8199 3.90994 14.9632 4.74707 15V14.999C5.59819 15.037 5.86022 15.0469 8 15.0469C10.136 15.0469 10.3985 15.037 11.252 14.999L11.2529 15C12.0866 14.9632 12.5657 14.82 12.8965 14.6914L12.8955 14.6904C13.3315 14.5219 13.6571 14.3126 13.9883 13.9814C14.3156 13.654 14.5287 13.3264 14.6973 12.8906C14.8097 12.6015 14.9334 12.2013 14.9873 11.5449L15.0059 11.2471C15.0438 10.3957 15.0527 10.1339 15.0527 7.99414C15.0527 5.85696 15.0438 5.59487 15.0059 4.74023C14.9782 4.11487 14.8911 3.6892 14.7949 3.37598L14.6973 3.09668C14.5288 2.66137 14.3191 2.3367 13.9883 2.00586C13.6605 1.6781 13.3319 1.46458 12.8955 1.2959H12.8945C12.5642 1.16762 12.0891 1.0251 11.2539 0.988281C10.4023 0.950293 10.1403 0.94043 8 0.94043Z" stroke="#2E2E2E"/>
<path d="M8 3.89062C5.73125 3.89062 3.89062 5.73125 3.89062 8C3.89062 10.2688 5.73125 12.1094 8 12.1094C10.2688 12.1094 12.1094 10.2688 12.1094 8C12.1094 5.73125 10.2688 3.89062 8 3.89062ZM8 10.6656C6.52813 10.6656 5.33437 9.47188 5.33437 8C5.33437 6.52813 6.52813 5.33437 8 5.33437C9.47188 5.33437 10.6656 6.52813 10.6656 8C10.6656 9.47188 9.47188 10.6656 8 10.6656Z" fill="#3B3313"/>
<path d="M13.2312 3.72891C13.2312 4.26016 12.8 4.68828 12.2719 4.68828C11.7406 4.68828 11.3125 4.25703 11.3125 3.72891C11.3125 3.19766 11.7438 2.76953 12.2719 2.76953C12.8 2.76953 13.2312 3.20078 13.2312 3.72891Z" fill="#3B3313"/>
</g>
<defs>
<clipPath id="clip0_6383_237">
<rect width="16" height="16" fill="white"/>
</clipPath>
</defs>
</svg>
