<svg width="16" height="16" viewBox="0 0 16 16" fill="none" xmlns="http://www.w3.org/2000/svg">
<path d="M12.2119 2.78027L11.8457 2.67871C11.4315 2.56388 10.5089 2.46191 9.97266 2.46191C8.56649 2.46199 7.43361 2.79313 6.66016 3.58301C5.8889 4.37074 5.56742 5.52033 5.56738 6.94629V7.5H3.91797V10.9443H5.56738V15.0957C2.61922 14.0852 0.5 11.2898 0.5 8C0.5 3.8579 3.8579 0.5 8 0.5C12.1421 0.5 15.4997 3.85788 15.5 8C15.5 11.639 12.908 14.6706 9.46973 15.3535V10.9443H11.5508L11.626 10.5352L12.0742 8.08984L12.1826 7.5H9.46973V7.13574C9.46973 6.53675 9.59052 6.25769 9.7373 6.11328C9.88637 5.96676 10.1754 5.84669 10.7881 5.84668C11.1945 5.84668 11.4997 5.85717 11.6602 5.87402L12.2119 5.93164V2.78027Z" fill="#2E2E2E" stroke="#2E2E2E"/>
</svg>
