<svg width="16" height="16" viewBox="0 0 16 16" fill="none" xmlns="http://www.w3.org/2000/svg">
<g clip-path="url(#clip0_6383_255)">
<mask id="path-1-inside-1_6383_255" fill="white">
<path d="M9.52373 6.77566L15.4811 0H14.0699L8.89493 5.88201L4.7648 0H0L6.24693 8.89549L0 15.9999H1.4112L6.87253 9.78701L11.2352 15.9999H16M1.92053 1.04126H4.08853L14.0688 15.0098H11.9003"/>
</mask>
<path d="M9.52373 6.77566L15.4811 0H14.0699L8.89493 5.88201L4.7648 0H0L6.24693 8.89549L0 15.9999H1.4112L6.87253 9.78701L11.2352 15.9999H16M1.92053 1.04126H4.08853L14.0688 15.0098H11.9003" fill="#2E2E2E"/>
<path d="M15.4811 0L16.2321 0.6603L17.6918 -1H15.4811V0ZM14.0699 0V-1H13.6177L13.3191 -0.660539L14.0699 0ZM8.89493 5.88201L8.07653 6.45666L8.80657 7.49636L9.64573 6.54255L8.89493 5.88201ZM4.7648 0L5.5832 -0.57465L5.28453 -1H4.7648V0ZM0 0V-1H-1.92421L-0.818363 0.574702L0 0ZM6.24693 8.89549L6.99791 9.55582L7.51757 8.96482L7.0653 8.32079L6.24693 8.89549ZM0 15.9999L-0.750975 15.3396L-2.2109 16.9999H0V15.9999ZM1.4112 15.9999V16.9999H1.8636L2.16228 16.6602L1.4112 15.9999ZM6.87253 9.78701L7.69092 9.21235L6.96055 8.17222L6.12146 9.1268L6.87253 9.78701ZM11.2352 15.9999L10.4168 16.5746L10.7155 16.9999H11.2352V15.9999ZM4.08853 1.04126L4.90219 0.459919L4.60307 0.0412622H4.08853V1.04126ZM14.0688 15.0098V16.0098H16.0123L14.8825 14.4285L14.0688 15.0098ZM10.2747 7.43596L16.2321 0.6603L14.7301 -0.6603L8.77273 6.11536L10.2747 7.43596ZM15.4811 -1H14.0699V1H15.4811V-1ZM13.3191 -0.660539L8.14414 5.22147L9.64573 6.54255L14.8207 0.660539L13.3191 -0.660539ZM9.71333 5.30736L5.5832 -0.57465L3.9464 0.57465L8.07653 6.45666L9.71333 5.30736ZM4.7648 -1H0V1H4.7648V-1ZM-0.818363 0.574702L5.42857 9.47019L7.0653 8.32079L0.818363 -0.574702L-0.818363 0.574702ZM5.49596 8.23516L-0.750975 15.3396L0.750975 16.6603L6.99791 9.55582L5.49596 8.23516ZM0 16.9999H1.4112V14.9999H0V16.9999ZM2.16228 16.6602L7.62361 10.4472L6.12146 9.1268L0.660124 15.3397L2.16228 16.6602ZM6.05414 10.3617L10.4168 16.5746L12.0536 15.4253L7.69092 9.21235L6.05414 10.3617ZM11.2352 16.9999H16V14.9999H11.2352V16.9999ZM1.92053 2.04126H4.08853V0.0412622H1.92053V2.04126ZM3.27487 1.6226L13.2551 15.5912L14.8825 14.4285L4.90219 0.459919L3.27487 1.6226ZM14.0688 14.0098H11.9003V16.0098H14.0688V14.0098Z" fill="#2E2E2E" mask="url(#path-1-inside-1_6383_255)"/>
</g>
<defs>
<clipPath id="clip0_6383_255">
<rect width="16" height="16" fill="white"/>
</clipPath>
</defs>
</svg>
